<?xml version="1.0" encoding="UTF-8" standalone="no"?>
<!-- Generator: Adobe Illustrator 17.0.0, SVG Export Plug-In . SVG Version: 6.00 Build 0)  -->

<svg
   xmlns:dc="http://purl.org/dc/elements/1.1/"
   xmlns:cc="http://creativecommons.org/ns#"
   xmlns:rdf="http://www.w3.org/1999/02/22-rdf-syntax-ns#"
   xmlns:svg="http://www.w3.org/2000/svg"
   xmlns="http://www.w3.org/2000/svg"
   xmlns:sodipodi="http://sodipodi.sourceforge.net/DTD/sodipodi-0.dtd"
   xmlns:inkscape="http://www.inkscape.org/namespaces/inkscape"
   version="1.1"
   id="Layer_1"
   x="0px"
   y="0px"
   width="500"
   height="500"
   viewBox="0 0 500 500"
   enable-background="new 0 0 497 424"
   xml:space="preserve"
   inkscape:version="0.91 r13725"
   sodipodi:docname="pig_720-4.svg"><metadata
     id="metadata15"><rdf:RDF><cc:Work
         rdf:about=""><dc:format>image/svg+xml</dc:format><dc:type
           rdf:resource="http://purl.org/dc/dcmitype/StillImage" /><dc:title></dc:title></cc:Work></rdf:RDF></metadata><defs
     id="defs13" /><sodipodi:namedview
     pagecolor="#ffffff"
     bordercolor="#666666"
     borderopacity="1"
     objecttolerance="10"
     gridtolerance="10"
     guidetolerance="10"
     inkscape:pageopacity="0"
     inkscape:pageshadow="2"
     inkscape:window-width="1322"
     inkscape:window-height="1054"
     id="namedview11"
     showgrid="false"
     inkscape:zoom="0.55130785"
     inkscape:cx="-16.324818"
     inkscape:cy="212"
     inkscape:window-x="0"
     inkscape:window-y="0"
     inkscape:window-maximized="0"
     inkscape:current-layer="Layer_1"
     showborder="true" /><g
     id="g3"
     transform="matrix(0.93339605,0,0,0.92641005,20.338058,12.840435)"><path
       d="m 299.208,59.903 c 49.571,14.194 92.903,37.886 121.162,84.249 9.293,-7.68 18.198,-14.814 26.845,-22.248 9.502,-8.168 20.375,-13.853 32.023,-18.073 6.766,-2.451 13.48,0.969 15.918,7.417 2.416,6.391 -0.527,13.085 -7.113,16.078 -2.074,0.943 -4.202,1.769 -7.042,2.956 8.065,7.255 12.825,15.29 10.498,25.901 -1.875,8.55 -6.464,15.327 -13.949,19.895 -16.931,10.333 -33.013,6.116 -42.136,-11.084 -3.561,1.113 -3.392,3.258 -2.496,6.416 9.299,32.792 10.831,65.768 -0.173,98.381 -8.174,24.225 -23.914,43.72 -42.307,61.024 -7.868,7.402 -16.626,13.85 -24.79,20.95 -2.009,1.747 -3.906,4.127 -4.78,6.596 -6.5,18.365 -12.737,36.824 -19.039,55.259 -2.287,6.69 -6.376,9.771 -13.357,9.785 -17.662,0.033 -35.323,0.041 -52.985,-0.003 -8.349,-0.021 -13.401,-5.037 -13.457,-13.319 -0.06,-8.784 -0.013,-17.569 -0.013,-26.166 -16.818,0 -33.08,0 -50.302,0 0,4.442 0.001,9.019 0,13.595 -0.001,4.499 0.112,9.001 -0.035,13.495 -0.233,7.116 -5.347,12.326 -12.407,12.368 -18.327,0.108 -36.656,0.086 -54.984,0.011 -6.172,-0.025 -10.221,-3.389 -12.379,-9.707 -6.405,-18.753 -12.746,-37.529 -19.353,-56.211 -1.005,-2.842 -2.876,-5.656 -5.046,-7.763 C 86.388,329.191 67.148,307.187 52.09,281.719 51.169,280.161 48.522,278.836 46.632,278.773 37.478,278.47 28.308,278.686 19.144,278.618 11.019,278.558 5.872,273.685 5.851,265.642 5.764,232.818 5.771,199.994 5.848,167.17 c 0.017,-7.107 5.17,-12.181 12.388,-12.31 8.995,-0.16 17.997,-0.167 26.99,0.02 3.197,0.066 5.113,-0.751 6.616,-3.817 8.61,-17.561 20.338,-32.814 34.994,-45.755 2.381,-2.103 3.121,-4.086 1.7,-6.882 C 80.552,82.723 72.808,66.891 64.462,51.383 61.567,46.004 59.601,41.12 63.037,35.546 c 3.445,-5.587 8.814,-6.521 14.844,-5.802 29.001,3.459 54.461,13.747 73.08,37.489 0.759,0.967 2.862,1.782 3.963,1.443 16.025,-4.933 31.986,-10.076 48.718,-15.409 -0.35,-15.235 5.518,-28.977 18.787,-39.087 9.827,-7.488 21.068,-10.545 33.335,-9.579 27.238,2.146 42.716,21.75 43.444,55.302 z M 99.36,60.441 c 1.048,2.23 1.807,3.634 2.384,5.108 4.662,11.918 9.405,23.806 13.884,35.792 2.603,6.967 0.388,12.434 -5.475,17.082 -17.287,13.703 -30.61,30.64 -39.161,51.007 -3.235,7.706 -8.102,11.195 -16.432,10.777 -7.734,-0.388 -15.503,-0.083 -23.251,-0.083 0,24.861 0,48.924 0,73.366 8.986,0 17.625,0.041 26.263,-0.015 5.385,-0.035 9.3,2.37 11.741,7.042 14.946,28.6 36.051,52.263 59.148,74.396 2.749,2.634 5.037,6.229 6.335,9.814 6.007,16.599 11.553,33.365 17.393,50.026 0.469,1.337 1.898,3.306 2.921,3.331 10.273,0.248 20.553,0.151 30.552,0.151 0.394,-0.964 0.628,-1.271 0.63,-1.58 0.062,-8.497 0.035,-16.996 0.162,-25.492 0.141,-9.447 5.533,-14.413 14.95,-13.875 2.327,0.133 4.643,0.455 6.964,0.693 20.152,2.066 40.263,1.808 60.32,-1.131 11.714,-1.716 18.465,4.137 18.48,16.084 0.01,8.276 0.002,16.552 0.002,25.332 9.946,0 19.245,-0.208 28.527,0.101 3.748,0.125 5.187,-1.306 6.293,-4.634 5.617,-16.912 11.291,-33.81 17.375,-50.557 1.16,-3.193 3.736,-6.43 6.541,-8.376 15.851,-10.997 30.117,-23.673 42.45,-38.501 15.317,-18.417 24.699,-39.049 26.382,-63.43 3.489,-50.538 -15.702,-89.922 -56.63,-119.002 -20.48,-14.552 -43.568,-23.607 -67.694,-30.06 -1.864,-0.499 -4.83,0.603 -6.418,1.969 -20.494,17.631 -50.072,16.106 -68.365,-3.881 -2.094,-2.288 -4.09,-3.126 -6.938,-2.365 -12.852,3.435 -25.71,6.849 -38.548,10.335 -1.025,0.278 -1.917,1.044 -2.944,1.624 1.856,3.742 3.787,7.068 5.203,10.601 3.701,9.232 -3.553,18.676 -13.224,17.333 -4.877,-0.678 -8.003,-3.633 -10.152,-7.959 C 142.773,98.874 135.356,87.05 125.688,76.745 118.609,69.202 109.986,64.175 99.36,60.441 Z m 367.236,92.468 c -0.074,-0.747 -0.147,-1.494 -0.221,-2.241 -2.067,-0.373 -4.478,-1.536 -6.08,-0.839 -1.051,0.457 -0.933,3.602 -1.339,5.542 0.409,0.293 0.819,0.586 1.228,0.879 2.137,-1.114 4.275,-2.227 6.412,-3.341 z"
       id="path5"
       inkscape:connector-curvature="0" /><path
       d="m 254.496,105.24 c 15.653,0 31.307,-0.09 46.959,0.036 8.482,0.069 13.767,5.066 13.757,12.533 -0.01,7.631 -5.646,12.735 -14.27,12.561 -31.474,-0.633 -62.948,-1.335 -94.42,-2.082 -8.23,-0.195 -13.696,-5.528 -13.552,-12.901 0.144,-7.357 5.761,-12.268 14.067,-12.272 15.82,-0.007 31.639,-0.002 47.459,-0.002 0,0.709 0,1.418 0,2.127 z"
       id="path7"
       inkscape:connector-curvature="0" /><path
       d="m 134.148,177.66 c -2.653,-0.214 -5.338,-0.236 -7.952,-0.678 -8.71,-1.472 -14.697,-9.063 -13.854,-17.361 0.891,-8.764 8.123,-15.095 17.082,-14.823 3.323,0.101 6.642,0.429 9.955,0.736 9.246,0.855 15.933,8.283 15.388,17.039 -0.557,8.94 -7.805,15.395 -17.127,15.235 -1.164,-0.02 -2.326,-0.125 -3.489,-0.191 -0.001,0.015 -0.002,0.029 -0.003,0.043 z"
       id="path9"
       inkscape:connector-curvature="0" /></g><rect
     style="fill:none;fill-rule:evenodd;stroke:none;stroke-width:1px;stroke-linecap:butt;stroke-linejoin:miter;stroke-opacity:1"
     id="rect3362"
     width="469.79196"
     height="417.18979"
     x="18.138685"
     y="82.810219" /></svg>